# xmcd
#
# Track frame offsets: 
#        150
#        12309
#        22869
#        35008
#        45715
#        55505
#        69374
#        85630
#        98314
#        111513
#        125274
#
# Disc length: 1898 seconds
#
# Revision: 0
# Processed by: cddbd v1.5.2PL0 Copyright (c) Steve Scherf et al.
# Submitted via: ExactAudioCopy v0.99pb5
#
DISCID=7a07680b
DTITLE=O'Brien Party of 7 - Reincarnation - The Songs of Roger Miller
DYEAR=2012
DGENRE=Country
TTITLE0=Reincarnation
TTITLE1=As Long as There's a Shadow
TTITLE2=In The  Summertime
TTITLE3=Tall Tall Trees
TTITLE4=Swiss Maid
TTITLE5=Got 2 Again
TTITLE6=Guv'ment
TTITLE7=Hand For The Hog
TTITLE8=Train of Life
TTITLE9=You're My Kingdom
TTITLE10=King of The Road
EXTD=
EXTT0=
EXTT1=
EXTT2=
EXTT3=
EXTT4=
EXTT5=
EXTT6=
EXTT7=
EXTT8=
EXTT9=
EXTT10=
PLAYORDER=
